<?xml version="1.0" encoding="UTF-8"?>
<svg id="Layer_1" data-name="Layer 1" xmlns="http://www.w3.org/2000/svg" viewBox="0 0 96 96">
  <defs>
    <style>
      .cls-1 {
        fill: #422b1c;
        fill-rule: evenodd;
        stroke-width: 0px;
      }
    </style>
  </defs>
  <path class="cls-1" d="M70.34,39.24c-.42.17-.84.36-1.25.57-.98.5-1.37,1.71-.87,2.69s1.7,1.38,2.69.88c1.75-.89,3.71-1.37,5.72-1.37h2.74c3.35,0,6.56,1.33,8.93,3.7,2.37,2.37,3.7,5.58,3.7,8.93v19.37c0,1.59-.63,3.12-1.76,4.24-1.12,1.12-2.65,1.76-4.24,1.76h-16c-1.1,0-2,.9-2,2s.9,2,2,2h16c2.65,0,5.2-1.05,7.07-2.93,1.88-1.88,2.93-4.42,2.93-7.07v-19.37c0-4.41-1.75-8.64-4.87-11.76-1.58-1.58-3.44-2.81-5.47-3.64,2.65-2.2,4.34-5.52,4.34-9.24,0-6.62-5.38-12-12-12s-12,5.38-12,12c0,3.71,1.69,7.03,4.34,9.24h0ZM10.34,39.24c-2.03.83-3.89,2.06-5.47,3.64-3.12,3.12-4.87,7.35-4.87,11.76v19.37c0,2.65,1.05,5.2,2.93,7.07,1.87,1.88,4.42,2.93,7.07,2.93h16c1.1,0,2-.9,2-2s-.9-2-2-2H10c-1.59,0-3.12-.63-4.24-1.76-1.13-1.13-1.76-2.65-1.76-4.24v-19.37c0-3.35,1.33-6.56,3.7-8.93,2.37-2.37,5.58-3.7,8.93-3.7h2.74c2.01,0,3.97.48,5.72,1.37.99.5,2.19.11,2.69-.88s.11-2.19-.87-2.69c-.41-.21-.83-.4-1.25-.57,2.65-2.2,4.34-5.52,4.34-9.24,0-6.62-5.38-12-12-12s-12,5.38-12,12c0,3.71,1.69,7.03,4.34,9.24h0ZM39.77,35.06c-6.29,2.37-10.77,8.45-10.77,15.57v23.37c0,2.65,1.05,5.2,2.93,7.07,1.87,1.88,4.42,2.93,7.07,2.93h18c2.65,0,5.2-1.05,7.07-2.93,1.88-1.88,2.93-4.42,2.93-7.07v-23.37c0-7.12-4.48-13.2-10.77-15.57,2.91-2.38,4.77-6.01,4.77-10.06,0-7.18-5.82-13-13-13s-13,5.82-13,13c0,4.05,1.86,7.68,4.77,10.06ZM63,50.63v23.37c0,1.59-.63,3.12-1.76,4.24-1.12,1.12-2.65,1.76-4.24,1.76h-18c-1.59,0-3.12-.63-4.24-1.76-1.13-1.13-1.76-2.65-1.76-4.24v-23.37c0-6.98,5.65-12.63,12.63-12.63h4.74c6.98,0,12.63,5.65,12.63,12.63h0ZM78,38c-4.41,0-8-3.59-8-8s3.59-8,8-8,8,3.59,8,8-3.59,8-8,8ZM18,38c-4.41,0-8-3.59-8-8s3.59-8,8-8,8,3.59,8,8-3.59,8-8,8ZM48,16c4.97,0,9,4.03,9,9s-4.03,9-9,9-9-4.03-9-9,4.03-9,9-9Z"/>
</svg>